<?xml version="1.0" encoding="UTF-8" standalone="no" ?>
<!DOCTYPE svg PUBLIC "-//W3C//DTD SVG 1.1//EN" "http://www.w3.org/Graphics/SVG/1.1/DTD/svg11.dtd">
<svg xmlns="http://www.w3.org/2000/svg" xmlns:xlink="http://www.w3.org/1999/xlink" version="1.1" width="500" height="500" viewBox="0 0 500 500" xml:space="preserve">
<desc>Created with Fabric.js 3.6.3</desc>
<defs>
</defs>
<g transform="matrix(1,0,0,1,343.25905038702354,262.5126301694123)" style=""  ><path fill="#ffffff" opacity="1" d="M-136.17-12.94L-136.17-12.94Q-136.65-14.99-136.26-16.93Q-135.87-18.88-136.12-20.88Q-136.36-22.88-137.82-23.75L-137.82-23.75Q-138.21-24.04-139.67-24.19Q-141.13-24.34-141.62-25.02L-141.62-25.02Q-142.98-27.26-141.42-29.45Q-139.87-31.64-138.31-31.64L-138.31-31.64Q-137.33-31.64-134.85-31.69Q-132.37-31.74-131.00-31.74Q-129.64-31.74-127.59-31.54Q-125.55-31.35-123.94-30.86Q-122.33-30.38-120.87-29.60L-120.87-29.60Q-120.00-29.11-114.54-27.16Q-109.09-25.21-107.14-22.49L-107.14-22.49Q-106.26-20.73-106.75-19.56L-106.75-19.56Q-108.02-18.49-110.45-16.35Q-112.89-14.21-114.93-12.55Q-116.98-10.90-119.22-9.63L-119.22-9.63Q-119.90-9.63-120.58-8.75L-120.58-8.75Q-121.07-8.17-120.39-7.97L-120.39-7.97Q-114.93-6.90-110.79-4.27Q-106.65-1.64-105.48 2.35L-105.48 2.35Q-103.44 9.46-112.11 18.13L-112.11 18.13Q-117.76 23.78-122.72 27.04Q-127.69 30.31-133.24 30.60L-133.24 30.60Q-134.80 30.69-136.12 29.62Q-137.43 28.55-136.65 26.90L-136.65 26.90Q-136.26 26.12-134.75 24.66Q-133.24 23.19-133.24 22.71L-133.24 22.71Q-133.05 20.86-133.05 18.86Q-133.05 16.86-133.15 15.31Q-133.24 13.75-133.58 11.41Q-133.92 9.07-134.12 7.85Q-134.31 6.64-134.75 3.96Q-135.19 1.28-135.39 0.31L-135.39 0.31Q-135.48-0.38-135.97-1.59Q-136.46-2.81-136.75-3.69Q-137.04-4.56-136.99-5.78Q-136.94-7.00-136.17-7.97L-136.17-7.97Q-135.29-9.04-136.17-12.94ZM-127.89-19.17L-127.89-19.17Q-127.98-18.39-127.64-16.74Q-127.30-15.08-127.50-14.21L-127.50-14.21Q-124.48-13.91-121.94-15.62Q-119.41-17.32-118.73-19.56L-118.73-19.56Q-118.34-20.34-119.17-20.88Q-120.00-21.41-121.80-22.00Q-123.60-22.58-124.18-22.88L-124.18-22.88Q-125.84-23.75-126.67-22.53Q-127.50-21.32-127.89-19.17ZM-125.45 9.46L-125.45 9.46Q-125.35 10.24-125.11 12.48Q-124.87 14.72-124.57 16.18Q-124.28 17.64-123.70 19.01L-123.70 19.01Q-123.21 18.62-120.97 16.82Q-118.73 15.01-117.95 14.23Q-117.17 13.45-115.86 11.85Q-114.54 10.24-114.20 8.63Q-113.86 7.03-114.25 5.27L-114.25 5.27Q-114.64 3.23-117.07 1.43Q-119.51-0.38-121.99-0.77Q-124.48-1.16-126.23 0.31L-126.23 0.31Q-126.72 1.96-126.67 2.84Q-126.62 3.71-126.08 6.05Q-125.55 8.39-125.45 9.46Z"/><path fill="#ffffff" opacity="1" d="M-94.48 17.84L-94.48 17.84Q-99.35 14.92-101.39 9.46Q-103.44 4.01-101.78-1.64L-101.78-1.64Q-100.91-4.86-98.37-8.41Q-95.84-11.97-95.55-12.65L-95.55-12.65Q-93.60-16.35-89.66-15.96Q-85.71-15.57-82.69-12.26L-82.69-12.26Q-79.48-8.56-77.92-2.71L-77.92-2.71Q-75.29 7.12-84.64 16.96L-84.64 16.96Q-86.20 18.62-89.36 18.81Q-92.53 19.01-94.48 17.84ZM-91.36 8.20L-91.36 8.20Q-88.05 8.97-86.49 6.73Q-84.93 4.49-85.66 0.99Q-86.39-2.52-88.93-5.34L-88.93-5.34Q-90.00-6.51-92.63-3.49L-92.63-3.49Q-96.23 0.50-95.74 4.20L-95.74 4.20Q-95.35 7.32-91.36 8.20Z"/><path fill="#ffffff" opacity="1" d="M-74.61 9.46L-74.61 9.46Q-74.61 7.90-74.90 4.25Q-75.19 0.60-75.10-1.98Q-75.00-4.56-74.22-6.61L-74.22-6.61Q-73.34-8.85-70.27-8.70Q-67.21-8.56-66.52-6.12L-66.52-6.12Q-66.13-4.76-66.77-2.23Q-67.40 0.31-67.40 1.28L-67.40 1.28Q-67.21 1.47-66.91 2.06L-66.91 2.06Q-66.62 2.45-66.52 2.45L-66.52 2.45Q-66.33 2.16-65.60 0.89Q-64.87-0.38-64.62-0.81Q-64.38-1.25-63.65-2.32Q-62.92-3.40-62.53-3.78Q-62.14-4.17-61.41-5.00Q-60.68-5.83-60.10-6.12Q-59.51-6.41-58.68-6.85Q-57.86-7.29-57.08-7.34Q-56.30-7.39-55.37-7.34Q-54.45-7.29-53.38-7.00L-53.38-7.00Q-51.82-4.56-50.79-1.89Q-49.77 0.79-49.28 4.49Q-48.80 8.20-48.60 9.90Q-48.41 11.60-48.21 16.52Q-48.02 21.44-48.02 22.22L-48.02 22.22Q-47.04 26.51-49.28 27.19L-49.28 27.19Q-55.52 28.84-55.91 26.31L-55.91 26.31Q-56.49 22.61-56.78 14.62Q-57.08 6.64-57.95 2.45L-57.95 2.45Q-60.68 5.47-63.31 12.43Q-65.94 19.40-67.40 21.83L-67.40 21.83Q-68.57 23.78-70.96 23.88Q-73.34 23.97-74.22 21.83L-74.22 21.83Q-74.80 20.18-74.90 18.18Q-75.00 16.18-74.80 13.41Q-74.61 10.63-74.61 9.46Z"/><path fill="#ffffff" opacity="1" d="M-27.27-12.94L-27.27-12.94Q-27.17-13.82-26.59-17.37Q-26.01-20.93-25.81-22.88L-25.81-22.88Q-25.42-26.19-21.82-26.67Q-18.21-27.16-15.49-25.21L-15.49-25.21Q-14.22-23.95-15.00-21.90L-15.00-21.90Q-18.80-13.62-18.80-2.03L-18.80-2.03Q-18.02-2.13-16.07-2.32L-16.07-2.32Q-7.40-3.49-5.55-1.93L-5.55-1.93Q-4.48-0.86-5.06 1.18L-5.06 1.18Q-5.36 2.16-6.04 2.89Q-6.72 3.62-7.94 4.06Q-9.16 4.49-10.08 4.79Q-11.01 5.08-12.76 5.18Q-14.51 5.27-15.34 5.32Q-16.17 5.37-18.12 5.32Q-20.06 5.27-20.45 5.27L-20.45 5.27Q-20.94 8.58-19.63 25.14Q-18.31 41.70-18.51 44.33L-18.51 44.33Q-18.60 45.79-19.53 46.72Q-20.45 47.64-21.92 47.64L-21.92 47.64Q-23.67 47.64-24.54 47.01Q-25.42 46.38-26.01 44.53L-26.01 44.53Q-26.88 42.09-27.81 25.24Q-28.73 8.39-30.29 5.57L-30.29 5.57Q-32.34 7.12-34.77 8.00Q-37.21 8.88-39.59 8.39Q-41.98 7.90-42.86 5.47L-42.86 5.47Q-43.25 4.49-42.42 3.23Q-41.59 1.96-40.42 1.18L-40.42 1.18Q-39.15 0.50-34.82-0.42Q-30.49-1.35-29.12-3.01L-29.12-3.01Q-28.25-4.08-27.95-5.68Q-27.66-7.29-27.52-9.63Q-27.37-11.97-27.27-12.94Z"/><path fill="#ffffff" opacity="1" d="M-2.92 3.13L-2.92 3.13Q-3.12-4.17 1.66-8.65Q6.43-13.14 13.54-12.16L13.54-12.16Q19.38-11.38 23.72-6.51Q28.05-1.64 27.95 4.40L27.95 4.40Q27.08 7.12 19.92 11.36Q12.76 15.60 11.79 16.57L11.79 16.57Q11.30 16.67 10.57 17.35Q9.84 18.03 10.23 18.62L10.23 18.62Q11.40 20.76 13.15 21.64Q14.90 22.51 17.09 22.12Q19.29 21.73 21.09 21.05Q22.89 20.37 25.32 19.10L25.32 19.10Q27.86 21.05 26.93 24.31Q26.01 27.58 22.99 28.06L22.99 28.06Q22.79 28.06 20.84 28.41Q18.90 28.75 18.41 28.80Q17.92 28.84 16.27 28.99Q14.61 29.14 13.73 28.99Q12.86 28.84 11.59 28.60Q10.32 28.36 9.16 27.87L9.16 27.87Q-2.53 22.61-2.92 3.13ZM7.69 8.10L7.69 8.10Q16.46 7.71 18.21 1.96L18.21 1.96Q19.77-1.45 15.68-3.25Q11.59-5.05 8.38-3.40L8.38-3.40Q6.43-2.32 5.80 0.45Q5.16 3.23 5.84 5.61Q6.53 8.00 7.69 8.10Z"/><path fill="#ffffff" opacity="1" d="M30.29 5.27L30.29 5.27Q31.85-3.98 38.38-9.73L38.38-9.73Q38.57-9.92 39.98-11.19Q41.39-12.45 41.78-12.79Q42.17-13.14 43.54-14.26Q44.90-15.38 45.49-15.77Q46.07-16.15 47.39-16.98Q48.70-17.81 49.48-18.05Q50.26-18.30 51.52-18.69Q52.79-19.08 53.72-19.08Q54.64-19.08 55.81-18.88Q56.98-18.69 58.05-18.20L58.05-18.20Q60.29-17.23 59.32-14.40L59.32-14.40Q58.44-11.77 56.54-10.36Q54.64-8.95 51.72-7.78Q48.80-6.61 47.14-5.44L47.14-5.44Q39.93 0.11 39.54 6.25L39.54 6.25Q39.15 11.70 41.59 15.31L41.59 15.31Q42.27 16.47 43.44 17.30Q44.61 18.13 45.49 18.47Q46.36 18.81 48.12 19.35Q49.87 19.88 50.55 20.18L50.55 20.18Q52.79 21.05 55.03 19.79Q57.27 18.52 59.51 16.77Q61.75 15.01 63.41 14.92L63.41 14.92Q64.87 14.82 65.40 15.70Q65.94 16.57 65.65 17.94Q65.36 19.30 64.92 20.42Q64.48 21.54 63.99 22.32L63.99 22.32Q58.25 31.08 42.56 26.60L42.56 26.60Q35.84 24.66 32.48 18.62Q29.12 12.58 30.29 5.27Z"/><path fill="#ffffff" opacity="1" d="M76.56 17.84L76.56 17.84Q71.69 14.92 69.64 9.46Q67.60 4.01 69.25-1.64L69.25-1.64Q70.13-4.86 72.66-8.41Q75.19-11.97 75.48-12.65L75.48-12.65Q77.43-16.35 81.38-15.96Q85.32-15.57 88.34-12.26L88.34-12.26Q91.56-8.56 93.11-2.71L93.11-2.71Q95.74 7.12 86.39 16.96L86.39 16.96Q84.84 18.62 81.67 18.81Q78.50 19.01 76.56 17.84ZM79.67 8.20L79.67 8.20Q82.98 8.97 84.54 6.73Q86.10 4.49 85.37 0.99Q84.64-2.52 82.11-5.34L82.11-5.34Q81.04-6.51 78.41-3.49L78.41-3.49Q74.80 0.50 75.29 4.20L75.29 4.20Q75.68 7.32 79.67 8.20Z"/><path fill="#ffffff" opacity="1" d="M96.23 5.96L96.23 5.96Q96.23-1.74 97.98-5.15L97.98-5.15Q98.96-7.00 101.20-7.63Q103.44-8.27 105.58-7.29L105.58-7.29Q107.14-6.61 107.92-5.29Q108.70-3.98 107.72-2.62L107.72-2.62Q105.97-0.18 105.78 4.20Q105.58 8.58 105.19 9.75L105.19 9.75Q104.32 11.99 105.05 16.57Q105.78 21.15 105.19 23.39L105.19 23.39Q105.19 23.68 104.90 24.17Q104.61 24.66 104.32 24.66L104.32 24.66Q97.79 26.51 96.62 22.90L96.62 22.90Q95.84 20.37 95.74 17.59Q95.65 14.82 95.94 11.17Q96.23 7.51 96.23 5.96ZM98.67-16.06L98.67-16.06Q97.59-17.62 98.23-20.00Q98.86-22.39 100.03-23.17L100.03-23.17Q102.27-24.53 104.90-24.34Q107.53-24.14 108.80-22.29L108.80-22.29Q109.96-20.54 108.84-17.86Q107.72-15.18 106.17-14.30L106.17-14.30Q104.51-13.33 102.42-13.77Q100.32-14.21 98.67-16.06Z"/><path fill="#ffffff" opacity="1" d="M114.44 9.46L114.44 9.46Q114.44 7.90 114.15 4.25Q113.86 0.60 113.96-1.98Q114.06-4.56 114.83-6.61L114.83-6.61Q115.71-8.85 118.78-8.70Q121.85-8.56 122.53-6.12L122.53-6.12Q122.92-4.76 122.29-2.23Q121.65 0.31 121.65 1.28L121.65 1.28Q121.85 1.47 122.14 2.06L122.14 2.06Q122.43 2.45 122.53 2.45L122.53 2.45Q122.72 2.16 123.45 0.89Q124.18-0.38 124.43-0.81Q124.67-1.25 125.40-2.32Q126.13-3.40 126.52-3.78Q126.91-4.17 127.64-5.00Q128.37-5.83 128.96-6.12Q129.54-6.41 130.37-6.85Q131.20-7.29 131.98-7.34Q132.76-7.39 133.68-7.34Q134.61-7.29 135.68-7.00L135.68-7.00Q137.24-4.56 138.26-1.89Q139.28 0.79 139.77 4.49Q140.26 8.20 140.45 9.90Q140.65 11.60 140.84 16.52Q141.04 21.44 141.04 22.22L141.04 22.22Q142.01 26.51 139.77 27.19L139.77 27.19Q133.54 28.84 133.15 26.31L133.15 26.31Q132.56 22.61 132.27 14.62Q131.98 6.64 131.10 2.45L131.10 2.45Q128.37 5.47 125.74 12.43Q123.11 19.40 121.65 21.83L121.65 21.83Q120.48 23.78 118.10 23.88Q115.71 23.97 114.83 21.83L114.83 21.83Q114.25 20.18 114.15 18.18Q114.06 16.18 114.25 13.41Q114.44 10.63 114.44 9.46Z"/></g>
<g transform="matrix(1.0931952367485724 0 0 1.0931952367485724 102.94018605120355 262.5126301694123)"  >
<g style=""   >
		<g transform="matrix(1.1204384654154556 0 0 1.1204384654154556 -10.091012139927798 11.67006888483489)"  >
<circle style="stroke: none; stroke-width: 0; stroke-dasharray: none; stroke-linecap: butt; stroke-dashoffset: 0; stroke-linejoin: miter; stroke-miterlimit: 4; fill: rgb(0,76,242); fill-rule: evenodd; opacity: 0.8;"  cx="0" cy="0" r="47.0059" />
</g>
		<g transform="matrix(0.7023644111559573 0 0 0.7023644111559573 20.99094185883972 -10.340111964735698)"  >
<circle style="stroke: none; stroke-width: 0; stroke-dasharray: none; stroke-linecap: butt; stroke-dashoffset: 0; stroke-linejoin: miter; stroke-miterlimit: 4; fill: rgb(251,165,54); fill-rule: evenodd; opacity: 0.8;"  cx="0" cy="0" r="47.0059" />
</g>
		<g transform="matrix(0.1640206609377625 0 0 0.1640206609377625 0.9140782848575064 -56.627348560332905)"  >
<circle style="stroke: none; stroke-width: 0; stroke-dasharray: none; stroke-linecap: butt; stroke-dashoffset: 0; stroke-linejoin: miter; stroke-miterlimit: 4; fill: rgb(255,83,98); fill-rule: evenodd; opacity: 0.7;"  cx="0" cy="0" r="47.0059" />
</g>
		<g transform="matrix(0.8863169950301366 0 0 0.8863169950301366 -25.328172179880866 -1.6932552024043588)"  >
<circle style="stroke: none; stroke-width: 0; stroke-dasharray: none; stroke-linecap: butt; stroke-dashoffset: 0; stroke-linejoin: miter; stroke-miterlimit: 4; fill: rgb(99,25,195); fill-rule: evenodd; opacity: 0.8;"  cx="0" cy="0" r="47.0059" />
</g>
		<g transform="matrix(0.6470430043256643 0 0 0.6470430043256643 13.674042016607682 31.322016071951435)"  >
<circle style="stroke: none; stroke-width: 0; stroke-dasharray: none; stroke-linecap: butt; stroke-dashoffset: 0; stroke-linejoin: miter; stroke-miterlimit: 4; fill: rgb(255,83,98); fill-rule: evenodd; opacity: 0.8;"  cx="0" cy="0" r="47.0059" />
</g>
		<g transform="matrix(0.07846229053274655 0 0 -0.07846229053274655 -76.90763257612397 11.670068884834874)"  >
<circle style="stroke: none; stroke-width: 0; stroke-dasharray: none; stroke-linecap: butt; stroke-dashoffset: 0; stroke-linejoin: miter; stroke-miterlimit: 4; fill: rgb(99,25,195); fill-rule: evenodd; opacity: 0.7;"  cx="0" cy="0" r="47.0059" />
</g>
		<g transform="matrix(0.08973911094761094 0 0 0.08973911094761093 55.15345252129921 21.98044018813328)"  >
<circle style="stroke: none; stroke-width: 0; stroke-dasharray: none; stroke-linecap: butt; stroke-dashoffset: 0; stroke-linejoin: miter; stroke-miterlimit: 4; fill: rgb(255,83,98); fill-rule: evenodd; opacity: 0.7;"  cx="0" cy="0" r="47.0059" />
</g>
		<g transform="matrix(0.19007688396989056 0 0 0.19007688396989056 71.66108815847704 6.423524467187805)"  >
<circle style="stroke: none; stroke-width: 0; stroke-dasharray: none; stroke-linecap: butt; stroke-dashoffset: 0; stroke-linejoin: miter; stroke-miterlimit: 4; fill: rgb(0,76,242); fill-rule: evenodd; opacity: 0.7;"  cx="0" cy="0" r="47.0059" />
</g>
		<g transform="matrix(0.09873329263926167 0 0 0.09873329263926167 -61.34997199317024 55.69043058397597)"  >
<circle style="stroke: none; stroke-width: 0; stroke-dasharray: none; stroke-linecap: butt; stroke-dashoffset: 0; stroke-linejoin: miter; stroke-miterlimit: 4; fill: rgb(251,165,54); fill-rule: evenodd; opacity: 0.7;"  cx="0" cy="0" r="47.0059" />
</g>
</g>
</g>
<g transform="matrix(3.0549292609983607 0 0 3.054929260998361 94.6060055476826 274.17709865009294)"  >
<path style="stroke: none; stroke-width: 0; stroke-dasharray: none; stroke-linecap: butt; stroke-dashoffset: 0; stroke-linejoin: miter; stroke-miterlimit: 4; fill: rgb(255,229,229); fill-rule: nonzero; opacity: 1;"  transform=" translate(-12, -12)" d="M 9.685 13.66 c -0.593 0.249 -2.562 1.095 -2.988 1.522 c -0.585 0.585 -0.585 1.536 0 2.121 c 0.283 0.283 0.66 0.439 1.061 0.439 s 0.777 -0.156 1.061 -0.439 c 0.427 -0.427 1.273 -2.396 1.522 -2.988 c 0.079 -0.188 0.036 -0.404 -0.107 -0.547 C 10.088 13.623 9.873 13.581 9.685 13.66 z M 8.818 6.697 c -0.566 -0.566 -1.555 -0.566 -2.121 0 c -0.585 0.585 -0.585 1.536 0 2.121 c 0.427 0.427 2.396 1.273 2.988 1.522 c 0.063 0.026 0.128 0.039 0.194 0.039 h 0.02 c 0.276 0 0.5 -0.224 0.5 -0.5 c 0 -0.118 -0.041 -0.226 -0.109 -0.311 C 9.993 8.867 9.22 7.099 8.818 6.697 z M 11.537 14.811 C 11.294 15.406 10.5 17.396 10.5 18 c 0 0.827 0.673 1.5 1.5 1.5 c 0.827 0 1.5 -0.673 1.5 -1.5 c 0 -0.604 -0.794 -2.594 -1.037 -3.189 C 12.31 14.435 11.69 14.435 11.537 14.811 z M 9.5 12 c 0 -0.203 -0.123 -0.386 -0.311 -0.463 C 8.594 11.294 6.604 10.5 6 10.5 c -0.827 0 -1.5 0.673 -1.5 1.5 s 0.673 1.5 1.5 1.5 c 0.604 0 2.594 -0.794 3.189 -1.037 C 9.377 12.386 9.5 12.203 9.5 12 z M 18 10.5 c -0.604 0 -2.594 0.794 -3.189 1.037 C 14.623 11.614 14.5 11.797 14.5 12 s 0.123 0.386 0.311 0.463 C 15.406 12.706 17.396 13.5 18 13.5 c 0.827 0 1.5 -0.673 1.5 -1.5 S 18.827 10.5 18 10.5 z M 14.315 13.66 c -0.188 -0.078 -0.403 -0.036 -0.547 0.107 c -0.144 0.144 -0.186 0.36 -0.107 0.547 c 0.249 0.593 1.095 2.562 1.522 2.988 c 0.283 0.283 0.66 0.439 1.061 0.439 s 0.777 -0.156 1.061 -0.439 c 0.585 -0.585 0.585 -1.536 0 -2.121 C 16.876 14.755 14.908 13.909 14.315 13.66 z M 12 4.5 c -0.827 0 -1.5 0.673 -1.5 1.5 c 0 0.604 0.794 2.594 1.037 3.189 C 11.614 9.377 11.797 9.5 12 9.5 s 0.386 -0.123 0.463 -0.311 C 12.706 8.594 13.5 6.604 13.5 6 C 13.5 5.173 12.827 4.5 12 4.5 z M 12 0.5 C 5.659 0.5 0.5 5.659 0.5 12 S 5.659 23.5 12 23.5 S 23.5 18.341 23.5 12 S 18.341 0.5 12 0.5 z M 12 20.5 c -4.687 0 -8.5 -3.813 -8.5 -8.5 S 7.313 3.5 12 3.5 s 8.5 3.813 8.5 8.5 S 16.687 20.5 12 20.5 z M 14.121 10.379 c 0.065 0 0.131 -0.013 0.194 -0.039 c 0.593 -0.249 2.562 -1.095 2.988 -1.522 c 0.585 -0.585 0.585 -1.536 0 -2.121 c -0.566 -0.566 -1.555 -0.566 -2.121 0 c -0.427 0.427 -1.273 2.396 -1.522 2.988 c -0.079 0.188 -0.036 0.404 0.107 0.547 C 13.863 10.328 13.991 10.379 14.121 10.379 z" stroke-linecap="round" />
</g>
</svg>